# xmcd
#
# Track frame offsets:
#	150
#	18480
#	36012
#	56410
#	75770
#	94585
#	112112
#	129832
#	144817
#	161650
#	178502
#	192690
#	212410
#	227345
#
# Disc length: 3232 seconds
#
# Revision: 1
# Processed by: cddbd v1.5.2PL0 Copyright (c) Steve Scherf et al.
# Submitted via: audiograbber 1.83.01
#
DISCID=a50c9e0e
DTITLE=Various Artist - SD061
DYEAR=1900
DGENRE=Country
TTITLE0=Shania Twain - Man I Feel Like A Woman
TTITLE1=Tim Mcgraw - Please Remember Me
TTITLE2=Steve Wariner - Two Teardrops
TTITLE3=Sammy Kershaw and Lorrie Morgan - Maybe Not Tonight
TTITLE4=Reba McEntire - One Honest Heart
TTITLE5=Martina McBride - Whatever You Say
TTITLE6=Michael Peterson - Somethin' Bout A Sunday
TTITLE7=Chely Wright - Single White Female
TTITLE8=Diamond Rio - I Know How The River Feels
TTITLE9=Andy Griggs - You Won't Ever Be Lonely
TTITLE10=Montgomery Gentry - Hillbilly Shoes
TTITLE11=The Warren Brothers - A Better Man
TTITLE12=SheDaisy - Little Goodbyes
TTITLE13=Jessica Andrews - I Will Be There For You
EXTD=
EXTT0=
EXTT1=
EXTT2=
EXTT3=
EXTT4=
EXTT5=
EXTT6=
EXTT7=
EXTT8=
EXTT9=
EXTT10=
EXTT11=
EXTT12=
EXTT13=
PLAYORDER=
